<svg width="155" height="63" viewBox="0 0 155 63" fill="none" xmlns="http://www.w3.org/2000/svg">
<path d="M1.546 49.24C1.13 49.24 0.794 49.176 0.538 49.048C0.282 48.952 0.154 48.808 0.154 48.616C0.154 48.2 0.682 47.832 1.738 47.512C2.666 47.224 3.466 46.824 4.138 46.312C4.81 45.768 5.386 44.936 5.866 43.816C7.562 39.912 9.034 36.376 10.282 33.208C11.562 30.008 13.082 26.024 14.842 21.256C15.194 20.264 15.418 19.336 15.514 18.472C15.61 18.44 15.834 18.376 16.186 18.28C16.57 18.152 16.922 17.976 17.242 17.752C17.498 17.56 17.69 17.272 17.818 16.888C17.978 16.504 18.09 16.248 18.154 16.12C18.186 16.088 18.218 16.088 18.25 16.12C18.314 16.12 18.362 16.136 18.394 16.168C18.458 16.328 18.506 16.504 18.538 16.696C18.602 16.888 18.666 17.064 18.73 17.224C21.098 24.68 23.946 33.224 27.274 42.856C27.882 44.616 28.554 45.816 29.29 46.456C30.026 47.064 30.97 47.464 32.122 47.656C32.634 47.752 33.018 47.912 33.274 48.136C33.562 48.328 33.706 48.536 33.706 48.76C33.706 49.08 33.242 49.24 32.314 49.24L29.722 49.144C27.93 49.016 26.57 48.952 25.642 48.952L20.602 49C19.674 49 19.21 48.808 19.21 48.424C19.21 48.232 19.354 48.056 19.642 47.896C19.962 47.704 20.346 47.576 20.794 47.512C22.746 47.192 23.722 46.472 23.722 45.352C23.722 44.328 23.098 41.736 21.85 37.576C21.786 37.352 21.658 37.208 21.466 37.144C21.306 37.08 21.002 37.048 20.554 37.048H11.482C11.13 37.048 10.858 37.336 10.666 37.912C10.314 38.936 9.898 40.28 9.418 41.944C8.938 43.576 8.698 44.536 8.698 44.824C8.698 45.496 8.954 46.072 9.466 46.552C10.01 47.032 10.682 47.368 11.482 47.56C12.058 47.72 12.458 47.864 12.682 47.992C12.938 48.12 13.066 48.296 13.066 48.52C13.066 48.872 12.602 49.048 11.674 49.048C11.098 49.048 10.618 49.032 10.234 49L7.306 48.952C6.762 48.952 6.154 48.968 5.482 49C4.842 49.064 4.362 49.096 4.042 49.096C3.146 49.192 2.314 49.24 1.546 49.24ZM20.218 35.464C20.41 35.464 20.57 35.448 20.698 35.416C20.826 35.384 20.89 35.32 20.89 35.224L20.794 34.744L17.05 23.032C16.858 22.456 16.714 22.168 16.618 22.168C16.554 22.168 16.426 22.44 16.234 22.984L11.866 34.744L11.77 35.128C11.77 35.288 11.834 35.384 11.962 35.416C12.122 35.448 12.394 35.464 12.778 35.464H20.218ZM51.0524 49.912C50.8284 49.912 50.7164 49.784 50.7164 49.528L50.8124 48.232C50.9084 47.592 50.9564 47.032 50.9564 46.552V46.264C49.7404 47.48 48.4924 48.36 47.2124 48.904C45.9324 49.416 44.5404 49.672 43.0364 49.672C41.4044 49.672 40.0764 49.176 39.0524 48.184C38.0604 47.192 37.5644 45.784 37.5644 43.96V34.216C37.5644 33.512 37.4044 32.952 37.0844 32.536C36.7644 32.12 36.2364 31.768 35.5004 31.48C35.0844 31.352 34.8764 31.096 34.8764 30.712C34.8764 30.264 35.1164 30.008 35.5964 29.944C36.5884 29.88 37.3724 29.8 37.9484 29.704C38.5244 29.608 39.3244 29.432 40.3484 29.176L40.7324 29.128C41.0844 29.128 41.2444 29.352 41.2124 29.8C41.0204 31.272 40.9244 32.504 40.9244 33.496V42.856C40.9244 44.008 41.3404 45.032 42.1724 45.928C43.0044 46.792 43.9324 47.224 44.9564 47.224C45.9164 47.224 46.6844 47.176 47.2604 47.08C47.8684 46.952 48.4444 46.68 48.9884 46.264C49.5644 45.848 50.0604 45.368 50.4764 44.824C50.9244 44.248 51.1484 43.528 51.1484 42.664V33.88C51.1484 33.016 50.7804 32.408 50.0444 32.056C49.3404 31.672 48.6364 31.48 47.9324 31.48C47.2604 31.48 46.9244 31.208 46.9244 30.664C46.9244 30.184 47.2604 29.944 47.9324 29.944C49.3084 29.912 50.3964 29.848 51.1964 29.752C52.0284 29.624 52.9084 29.432 53.8364 29.176C54.0284 29.112 54.1884 29.08 54.3164 29.08C54.4764 29.08 54.6204 29.128 54.7484 29.224C54.8764 29.32 54.9404 29.448 54.9404 29.608L54.8444 30.04C54.7804 30.392 54.7004 30.904 54.6044 31.576C54.5404 32.216 54.5084 32.808 54.5084 33.352V44.44C54.5084 46.04 54.7964 46.84 55.3724 46.84L56.4764 46.744L57.5804 46.696C58.0604 46.696 58.3004 46.904 58.3004 47.32C58.3004 47.576 58.2364 47.752 58.1084 47.848C58.0124 47.912 57.8524 47.96 57.6284 47.992C56.5404 48.152 55.5804 48.36 54.7484 48.616C53.9164 48.872 53.0044 49.208 52.0124 49.624C51.6284 49.816 51.3084 49.912 51.0524 49.912ZM79.3409 30.376C79.5009 30.376 79.6449 30.44 79.7729 30.568C79.9009 30.696 79.9649 30.872 79.9649 31.096C79.9649 31.384 79.8049 31.688 79.4849 32.008C79.3249 32.168 79.1969 32.248 79.1009 32.248H77.8049C76.9409 32.248 76.4609 32.376 76.3649 32.632C76.1729 33.208 76.0769 33.944 76.0769 34.84C76.0769 36.44 75.7249 37.944 75.0209 39.352C74.3169 40.728 73.3729 41.832 72.1889 42.664C71.0369 43.496 69.7889 43.912 68.4449 43.912C67.5169 43.912 66.6689 43.752 65.9009 43.432C65.3249 43.72 64.8449 44.056 64.4609 44.44C64.0769 44.824 63.8849 45.16 63.8849 45.448C63.8849 46.792 65.9649 47.592 70.1249 47.848C73.0689 48.008 75.2609 48.488 76.7009 49.288C78.1409 50.088 78.8609 51.224 78.8609 52.696C78.8609 54.296 78.3329 55.896 77.2769 57.496C76.2209 59.096 74.8609 60.392 73.1969 61.384C71.5329 62.408 69.8529 62.92 68.1569 62.92C65.4369 62.92 63.2769 62.408 61.6769 61.384C60.1089 60.36 59.3249 58.952 59.3249 57.16C59.3249 56.328 59.4529 55.624 59.7089 55.048C59.9649 54.504 60.3649 54.008 60.9089 53.56L62.8289 52.024L64.9409 50.344C63.4369 50.056 62.3489 49.64 61.6769 49.096C61.0369 48.552 60.7169 47.816 60.7169 46.888C60.7169 46.312 61.0849 45.72 61.8209 45.112C62.5889 44.536 63.1809 44.088 63.5969 43.768C64.0129 43.416 64.3169 43.096 64.5089 42.808C63.3569 42.136 62.4289 41.256 61.7249 40.168C61.0209 39.048 60.6689 37.864 60.6689 36.616C60.6689 35.176 61.0529 33.88 61.8209 32.728C62.5889 31.576 63.6129 30.68 64.8929 30.04C66.1729 29.368 67.5489 29.032 69.0209 29.032C69.9809 29.032 71.1329 29.256 72.4769 29.704C72.7009 29.8 73.0369 29.912 73.4849 30.04C74.1889 30.232 74.7649 30.36 75.2129 30.424C75.6609 30.488 76.1569 30.52 76.7009 30.52C77.0529 30.52 77.5809 30.488 78.2849 30.424L79.3409 30.376ZM68.7329 42.232C69.9169 42.232 70.9089 41.624 71.7089 40.408C72.5409 39.16 72.9569 37.624 72.9569 35.8C72.9569 34.904 72.7329 34.04 72.2849 33.208C71.8689 32.376 71.3089 31.72 70.6049 31.24C69.9009 30.728 69.1649 30.472 68.3969 30.472C67.6609 30.472 66.9569 30.728 66.2849 31.24C65.6449 31.752 65.1169 32.44 64.7009 33.304C64.3169 34.168 64.1249 35.08 64.1249 36.04C64.1249 37.128 64.3329 38.152 64.7489 39.112C65.1649 40.072 65.7249 40.84 66.4289 41.416C67.1329 41.96 67.9009 42.232 68.7329 42.232ZM75.9329 54.232C75.9329 53.176 75.3729 52.376 74.2529 51.832C73.1329 51.288 71.2929 50.936 68.7329 50.776C67.8049 50.712 67.1169 50.648 66.6689 50.584C65.2929 51.512 64.3169 52.408 63.7409 53.272C63.1969 54.168 62.9249 55.224 62.9249 56.44C62.9249 57.72 63.4849 58.792 64.6049 59.656C65.7569 60.552 67.1649 61 68.8289 61C70.7169 61 72.2369 60.568 73.3889 59.704C74.1889 59.096 74.8129 58.296 75.2609 57.304C75.7089 56.344 75.9329 55.32 75.9329 54.232ZM97.2243 49.912C97.0003 49.912 96.8883 49.784 96.8883 49.528L96.9843 48.232C97.0803 47.592 97.1283 47.032 97.1283 46.552V46.264C95.9123 47.48 94.6643 48.36 93.3843 48.904C92.1043 49.416 90.7123 49.672 89.2083 49.672C87.5763 49.672 86.2483 49.176 85.2243 48.184C84.2323 47.192 83.7363 45.784 83.7363 43.96V34.216C83.7363 33.512 83.5763 32.952 83.2563 32.536C82.9363 32.12 82.4083 31.768 81.6723 31.48C81.2563 31.352 81.0483 31.096 81.0483 30.712C81.0483 30.264 81.2883 30.008 81.7683 29.944C82.7603 29.88 83.5443 29.8 84.1203 29.704C84.6963 29.608 85.4963 29.432 86.5203 29.176L86.9043 29.128C87.2563 29.128 87.4163 29.352 87.3843 29.8C87.1923 31.272 87.0963 32.504 87.0963 33.496V42.856C87.0963 44.008 87.5123 45.032 88.3443 45.928C89.1763 46.792 90.1043 47.224 91.1283 47.224C92.0883 47.224 92.8563 47.176 93.4323 47.08C94.0403 46.952 94.6163 46.68 95.1603 46.264C95.7363 45.848 96.2323 45.368 96.6483 44.824C97.0963 44.248 97.3203 43.528 97.3203 42.664V33.88C97.3203 33.016 96.9523 32.408 96.2163 32.056C95.5123 31.672 94.8083 31.48 94.1043 31.48C93.4323 31.48 93.0963 31.208 93.0963 30.664C93.0963 30.184 93.4323 29.944 94.1043 29.944C95.4803 29.912 96.5683 29.848 97.3683 29.752C98.2003 29.624 99.0803 29.432 100.008 29.176C100.2 29.112 100.36 29.08 100.488 29.08C100.648 29.08 100.792 29.128 100.92 29.224C101.048 29.32 101.112 29.448 101.112 29.608L101.016 30.04C100.952 30.392 100.872 30.904 100.776 31.576C100.712 32.216 100.68 32.808 100.68 33.352V44.44C100.68 46.04 100.968 46.84 101.544 46.84L102.648 46.744L103.752 46.696C104.232 46.696 104.472 46.904 104.472 47.32C104.472 47.576 104.408 47.752 104.28 47.848C104.184 47.912 104.024 47.96 103.8 47.992C102.712 48.152 101.752 48.36 100.92 48.616C100.088 48.872 99.1763 49.208 98.1843 49.624C97.8003 49.816 97.4803 49.912 97.2243 49.912ZM111.881 49.672C110.889 49.672 109.961 49.512 109.097 49.192C108.233 48.904 107.497 48.488 106.889 47.944C106.633 47.432 106.457 46.152 106.361 44.104C106.361 43.816 106.569 43.672 106.985 43.672C107.337 43.672 107.529 43.784 107.561 44.008C107.945 45.48 108.569 46.584 109.433 47.32C110.329 48.024 111.289 48.376 112.313 48.376C113.241 48.376 114.025 48.072 114.665 47.464C115.337 46.824 115.673 46.04 115.673 45.112C115.673 44.28 115.385 43.56 114.809 42.952C114.265 42.312 113.257 41.528 111.785 40.6C110.121 39.576 108.937 38.632 108.233 37.768C107.561 36.872 107.225 35.832 107.225 34.648C107.225 33.048 107.785 31.736 108.905 30.712C110.025 29.656 111.625 29.128 113.705 29.128C114.601 29.128 115.369 29.224 116.009 29.416C116.681 29.576 117.193 29.784 117.545 30.04C117.801 30.392 118.009 30.952 118.169 31.72C118.361 32.456 118.457 33.16 118.457 33.832C118.457 34.056 118.297 34.168 117.977 34.168C117.785 34.168 117.593 34.136 117.401 34.072C117.209 33.976 117.097 33.864 117.065 33.736C116.617 32.648 116.073 31.832 115.433 31.288C114.825 30.744 114.073 30.472 113.177 30.472C112.345 30.472 111.625 30.728 111.017 31.24C110.409 31.752 110.105 32.44 110.105 33.304C110.105 34.072 110.329 34.744 110.777 35.32C111.257 35.864 112.137 36.504 113.417 37.24C115.433 38.392 116.857 39.432 117.689 40.36C118.521 41.256 118.937 42.408 118.937 43.816C118.937 45.544 118.281 46.952 116.969 48.04C115.657 49.128 113.961 49.672 111.881 49.672ZM129.556 49.672C127.956 49.672 126.724 49.192 125.86 48.232C124.996 47.24 124.564 45.816 124.564 43.96V32.824C124.564 32.536 124.452 32.344 124.228 32.248C124.036 32.152 123.636 32.104 123.028 32.104H122.74C122.58 32.104 122.436 32.008 122.308 31.816C122.212 31.624 122.164 31.4 122.164 31.144C122.164 31.08 122.196 31 122.26 30.904C122.356 30.776 122.436 30.68 122.5 30.616C124.228 29.4 125.652 28.12 126.772 26.776C126.9 26.616 127.028 26.488 127.156 26.392C127.284 26.264 127.428 26.2 127.588 26.2C128.036 26.2 128.244 26.376 128.212 26.728L127.972 28.888V29.08C127.972 29.368 128.068 29.56 128.26 29.656C128.452 29.752 128.74 29.8 129.124 29.8H134.596C134.724 29.8 134.836 29.912 134.932 30.136C135.028 30.328 135.076 30.568 135.076 30.856C135.076 31.144 135.028 31.432 134.932 31.72C134.836 31.976 134.724 32.104 134.596 32.104H129.844C128.98 32.104 128.436 32.168 128.212 32.296C128.02 32.424 127.924 32.808 127.924 33.448V42.904C127.924 44.216 128.196 45.24 128.74 45.976C129.284 46.68 130.068 47.032 131.092 47.032C131.988 47.032 132.692 46.968 133.204 46.84C133.748 46.712 134.228 46.488 134.644 46.168L134.836 46.072C135.06 46.072 135.172 46.296 135.172 46.744C135.172 46.936 134.884 47.288 134.308 47.8C133.732 48.28 133.012 48.712 132.148 49.096C131.316 49.48 130.452 49.672 129.556 49.672ZM141.194 49.672C140.65 49.672 140.074 49.448 139.466 49C138.858 48.584 138.346 48.056 137.93 47.416C137.546 46.744 137.354 46.12 137.354 45.544C137.354 44.552 137.61 43.768 138.122 43.192C138.666 42.616 139.546 42.072 140.762 41.56L145.658 39.544C146.266 39.288 146.634 39.064 146.762 38.872C146.89 38.68 146.97 38.264 147.002 37.624L147.098 34.552C147.13 33.688 146.89 32.968 146.378 32.392C145.866 31.784 145.162 31.48 144.266 31.48C143.786 31.48 143.306 31.56 142.826 31.72C142.346 31.88 141.946 32.088 141.626 32.344C141.306 32.568 141.146 33.032 141.146 33.736L141.194 34.6C141.194 34.856 140.778 35.208 139.946 35.656C139.146 36.072 138.506 36.28 138.026 36.28C137.866 36.28 137.738 36.248 137.642 36.184C137.546 36.088 137.498 35.976 137.498 35.848C137.498 35.336 137.658 34.792 137.978 34.216C138.33 33.608 138.81 33.048 139.418 32.536C140.506 31.544 141.722 30.728 143.066 30.088C144.442 29.448 145.61 29.128 146.57 29.128C147.722 29.128 148.666 29.544 149.402 30.376C150.17 31.176 150.538 32.184 150.506 33.4L150.266 44.92C150.234 45.592 150.378 46.136 150.698 46.552C151.018 46.968 151.45 47.176 151.994 47.176C152.794 47.176 153.386 47 153.77 46.648C153.93 46.488 154.058 46.408 154.154 46.408C154.314 46.408 154.442 46.456 154.538 46.552C154.634 46.648 154.682 46.776 154.682 46.936C154.682 47.064 154.634 47.24 154.538 47.464C154.442 47.656 154.314 47.832 154.154 47.992C153.642 48.504 153.082 48.904 152.474 49.192C151.898 49.512 151.354 49.672 150.842 49.672C149.37 49.672 148.202 48.84 147.338 47.176H147.194C146.138 48.04 145.13 48.664 144.17 49.048C143.21 49.464 142.218 49.672 141.194 49.672ZM143.45 47.368C144.57 47.368 145.514 46.984 146.282 46.216C146.474 46.024 146.618 45.784 146.714 45.496C146.81 45.208 146.874 44.792 146.906 44.248L147.002 41.896V41.608C147.002 41.352 146.97 41.176 146.906 41.08C146.842 40.952 146.73 40.888 146.57 40.888C146.378 40.888 146.058 40.968 145.61 41.128C144.01 41.704 142.858 42.312 142.154 42.952C141.45 43.592 141.098 44.216 141.098 44.824C141.098 45.624 141.322 46.248 141.77 46.696C142.25 47.144 142.81 47.368 143.45 47.368Z" fill="#010A5C"/>
<line y1="55" x2="56" y2="55" stroke="#E3C24A" stroke-width="4"/>
</svg>
