<svg width="218" height="46" viewBox="0 0 218 46" fill="none" xmlns="http://www.w3.org/2000/svg">
<path d="M106.117 35.175C105.814 35.175 105.569 35.1283 105.382 35.035C105.195 34.965 105.102 34.86 105.102 34.72C105.102 34.4167 105.487 34.1483 106.257 33.915C106.934 33.705 107.517 33.4133 108.007 33.04C108.497 32.6433 108.917 32.0367 109.267 31.22C110.504 28.3733 111.577 25.795 112.487 23.485C113.42 21.1517 114.529 18.2467 115.812 14.77C116.069 14.0467 116.232 13.37 116.302 12.74C116.372 12.7167 116.535 12.67 116.792 12.6C117.072 12.5067 117.329 12.3783 117.562 12.215C117.749 12.075 117.889 11.865 117.982 11.585C118.099 11.305 118.18 11.1183 118.227 11.025C118.25 11.0017 118.274 11.0017 118.297 11.025C118.344 11.025 118.379 11.0367 118.402 11.06C118.449 11.1767 118.484 11.305 118.507 11.445C118.554 11.585 118.6 11.7133 118.647 11.83C120.374 17.2667 122.45 23.4967 124.877 30.52C125.32 31.8033 125.81 32.6783 126.347 33.145C126.884 33.5883 127.572 33.88 128.412 34.02C128.785 34.09 129.065 34.2067 129.252 34.37C129.462 34.51 129.567 34.6617 129.567 34.825C129.567 35.0583 129.229 35.175 128.552 35.175L126.662 35.105C125.355 35.0117 124.364 34.965 123.687 34.965L120.012 35C119.335 35 118.997 34.86 118.997 34.58C118.997 34.44 119.102 34.3117 119.312 34.195C119.545 34.055 119.825 33.9617 120.152 33.915C121.575 33.6817 122.287 33.1567 122.287 32.34C122.287 31.5933 121.832 29.7033 120.922 26.67C120.875 26.5067 120.782 26.4017 120.642 26.355C120.525 26.3083 120.304 26.285 119.977 26.285H113.362C113.105 26.285 112.907 26.495 112.767 26.915C112.51 27.6617 112.207 28.6417 111.857 29.855C111.507 31.045 111.332 31.745 111.332 31.955C111.332 32.445 111.519 32.865 111.892 33.215C112.289 33.565 112.779 33.81 113.362 33.95C113.782 34.0667 114.074 34.1717 114.237 34.265C114.424 34.3583 114.517 34.4867 114.517 34.65C114.517 34.9067 114.179 35.035 113.502 35.035C113.082 35.035 112.732 35.0233 112.452 35L110.317 34.965C109.92 34.965 109.477 34.9767 108.987 35C108.52 35.0467 108.17 35.07 107.937 35.07C107.284 35.14 106.677 35.175 106.117 35.175ZM119.732 25.13C119.872 25.13 119.989 25.1183 120.082 25.095C120.175 25.0717 120.222 25.025 120.222 24.955L120.152 24.605L117.422 16.065C117.282 15.645 117.177 15.435 117.107 15.435C117.06 15.435 116.967 15.6333 116.827 16.03L113.642 24.605L113.572 24.885C113.572 25.0017 113.619 25.0717 113.712 25.095C113.829 25.1183 114.027 25.13 114.307 25.13H119.732ZM142.215 35.665C142.052 35.665 141.97 35.5717 141.97 35.385L142.04 34.44C142.11 33.9733 142.145 33.565 142.145 33.215V33.005C141.259 33.8917 140.349 34.5333 139.415 34.93C138.482 35.3033 137.467 35.49 136.37 35.49C135.18 35.49 134.212 35.1283 133.465 34.405C132.742 33.6817 132.38 32.655 132.38 31.325V24.22C132.38 23.7067 132.264 23.2983 132.03 22.995C131.797 22.6917 131.412 22.435 130.875 22.225C130.572 22.1317 130.42 21.945 130.42 21.665C130.42 21.3383 130.595 21.1517 130.945 21.105C131.669 21.0583 132.24 21 132.66 20.93C133.08 20.86 133.664 20.7317 134.41 20.545L134.69 20.51C134.947 20.51 135.064 20.6733 135.04 21C134.9 22.0733 134.83 22.9717 134.83 23.695V30.52C134.83 31.36 135.134 32.1067 135.74 32.76C136.347 33.39 137.024 33.705 137.77 33.705C138.47 33.705 139.03 33.67 139.45 33.6C139.894 33.5067 140.314 33.3083 140.71 33.005C141.13 32.7017 141.492 32.3517 141.795 31.955C142.122 31.535 142.285 31.01 142.285 30.38V23.975C142.285 23.345 142.017 22.9017 141.48 22.645C140.967 22.365 140.454 22.225 139.94 22.225C139.45 22.225 139.205 22.0267 139.205 21.63C139.205 21.28 139.45 21.105 139.94 21.105C140.944 21.0817 141.737 21.035 142.32 20.965C142.927 20.8717 143.569 20.7317 144.245 20.545C144.385 20.4983 144.502 20.475 144.595 20.475C144.712 20.475 144.817 20.51 144.91 20.58C145.004 20.65 145.05 20.7433 145.05 20.86L144.98 21.175C144.934 21.4317 144.875 21.805 144.805 22.295C144.759 22.7617 144.735 23.1933 144.735 23.59V31.675C144.735 32.8417 144.945 33.425 145.365 33.425L146.17 33.355L146.975 33.32C147.325 33.32 147.5 33.4717 147.5 33.775C147.5 33.9617 147.454 34.09 147.36 34.16C147.29 34.2067 147.174 34.2417 147.01 34.265C146.217 34.3817 145.517 34.5333 144.91 34.72C144.304 34.9067 143.639 35.1517 142.915 35.455C142.635 35.595 142.402 35.665 142.215 35.665ZM162.842 21.42C162.959 21.42 163.064 21.4667 163.157 21.56C163.251 21.6533 163.297 21.7817 163.297 21.945C163.297 22.155 163.181 22.3767 162.947 22.61C162.831 22.7267 162.737 22.785 162.667 22.785H161.722C161.092 22.785 160.742 22.8783 160.672 23.065C160.532 23.485 160.462 24.0217 160.462 24.675C160.462 25.8417 160.206 26.9383 159.692 27.965C159.179 28.9683 158.491 29.7733 157.627 30.38C156.787 30.9867 155.877 31.29 154.897 31.29C154.221 31.29 153.602 31.1733 153.042 30.94C152.622 31.15 152.272 31.395 151.992 31.675C151.712 31.955 151.572 32.2 151.572 32.41C151.572 33.39 153.089 33.9733 156.122 34.16C158.269 34.2767 159.867 34.6267 160.917 35.21C161.967 35.7933 162.492 36.6217 162.492 37.695C162.492 38.8617 162.107 40.0283 161.337 41.195C160.567 42.3617 159.576 43.3067 158.362 44.03C157.149 44.7767 155.924 45.15 154.687 45.15C152.704 45.15 151.129 44.7767 149.962 44.03C148.819 43.2833 148.247 42.2567 148.247 40.95C148.247 40.3433 148.341 39.83 148.527 39.41C148.714 39.0133 149.006 38.6517 149.402 38.325L150.802 37.205L152.342 35.98C151.246 35.77 150.452 35.4667 149.962 35.07C149.496 34.6733 149.262 34.1367 149.262 33.46C149.262 33.04 149.531 32.6083 150.067 32.165C150.627 31.745 151.059 31.4183 151.362 31.185C151.666 30.9283 151.887 30.695 152.027 30.485C151.187 29.995 150.511 29.3533 149.997 28.56C149.484 27.7433 149.227 26.88 149.227 25.97C149.227 24.92 149.507 23.975 150.067 23.135C150.627 22.295 151.374 21.6417 152.307 21.175C153.241 20.685 154.244 20.44 155.317 20.44C156.017 20.44 156.857 20.6033 157.837 20.93C158.001 21 158.246 21.0817 158.572 21.175C159.086 21.315 159.506 21.4083 159.832 21.455C160.159 21.5017 160.521 21.525 160.917 21.525C161.174 21.525 161.559 21.5017 162.072 21.455L162.842 21.42ZM155.107 30.065C155.971 30.065 156.694 29.6217 157.277 28.735C157.884 27.825 158.187 26.705 158.187 25.375C158.187 24.7217 158.024 24.0917 157.697 23.485C157.394 22.8783 156.986 22.4 156.472 22.05C155.959 21.6767 155.422 21.49 154.862 21.49C154.326 21.49 153.812 21.6767 153.322 22.05C152.856 22.4233 152.471 22.925 152.167 23.555C151.887 24.185 151.747 24.85 151.747 25.55C151.747 26.3433 151.899 27.09 152.202 27.79C152.506 28.49 152.914 29.05 153.427 29.47C153.941 29.8667 154.501 30.065 155.107 30.065ZM160.357 38.815C160.357 38.045 159.949 37.4617 159.132 37.065C158.316 36.6683 156.974 36.4117 155.107 36.295C154.431 36.2483 153.929 36.2017 153.602 36.155C152.599 36.8317 151.887 37.485 151.467 38.115C151.071 38.7683 150.872 39.5383 150.872 40.425C150.872 41.3583 151.281 42.14 152.097 42.77C152.937 43.4233 153.964 43.75 155.177 43.75C156.554 43.75 157.662 43.435 158.502 42.805C159.086 42.3617 159.541 41.7783 159.867 41.055C160.194 40.355 160.357 39.6083 160.357 38.815ZM175.882 35.665C175.719 35.665 175.637 35.5717 175.637 35.385L175.707 34.44C175.777 33.9733 175.812 33.565 175.812 33.215V33.005C174.926 33.8917 174.016 34.5333 173.082 34.93C172.149 35.3033 171.134 35.49 170.037 35.49C168.847 35.49 167.879 35.1283 167.132 34.405C166.409 33.6817 166.047 32.655 166.047 31.325V24.22C166.047 23.7067 165.931 23.2983 165.697 22.995C165.464 22.6917 165.079 22.435 164.542 22.225C164.239 22.1317 164.087 21.945 164.087 21.665C164.087 21.3383 164.262 21.1517 164.612 21.105C165.336 21.0583 165.907 21 166.327 20.93C166.747 20.86 167.331 20.7317 168.077 20.545L168.357 20.51C168.614 20.51 168.731 20.6733 168.707 21C168.567 22.0733 168.497 22.9717 168.497 23.695V30.52C168.497 31.36 168.801 32.1067 169.407 32.76C170.014 33.39 170.691 33.705 171.437 33.705C172.137 33.705 172.697 33.67 173.117 33.6C173.561 33.5067 173.981 33.3083 174.377 33.005C174.797 32.7017 175.159 32.3517 175.462 31.955C175.789 31.535 175.952 31.01 175.952 30.38V23.975C175.952 23.345 175.684 22.9017 175.147 22.645C174.634 22.365 174.121 22.225 173.607 22.225C173.117 22.225 172.872 22.0267 172.872 21.63C172.872 21.28 173.117 21.105 173.607 21.105C174.611 21.0817 175.404 21.035 175.987 20.965C176.594 20.8717 177.236 20.7317 177.912 20.545C178.052 20.4983 178.169 20.475 178.262 20.475C178.379 20.475 178.484 20.51 178.577 20.58C178.671 20.65 178.717 20.7433 178.717 20.86L178.647 21.175C178.601 21.4317 178.542 21.805 178.472 22.295C178.426 22.7617 178.402 23.1933 178.402 23.59V31.675C178.402 32.8417 178.612 33.425 179.032 33.425L179.837 33.355L180.642 33.32C180.992 33.32 181.167 33.4717 181.167 33.775C181.167 33.9617 181.121 34.09 181.027 34.16C180.957 34.2067 180.841 34.2417 180.677 34.265C179.884 34.3817 179.184 34.5333 178.577 34.72C177.971 34.9067 177.306 35.1517 176.582 35.455C176.302 35.595 176.069 35.665 175.882 35.665ZM186.569 35.49C185.846 35.49 185.169 35.3733 184.539 35.14C183.909 34.93 183.373 34.6267 182.929 34.23C182.743 33.8567 182.614 32.9233 182.544 31.43C182.544 31.22 182.696 31.115 182.999 31.115C183.256 31.115 183.396 31.1967 183.419 31.36C183.699 32.4333 184.154 33.2383 184.784 33.775C185.438 34.2883 186.138 34.545 186.884 34.545C187.561 34.545 188.133 34.3233 188.599 33.88C189.089 33.4133 189.334 32.8417 189.334 32.165C189.334 31.5583 189.124 31.0333 188.704 30.59C188.308 30.1233 187.573 29.5517 186.499 28.875C185.286 28.1283 184.423 27.44 183.909 26.81C183.419 26.1567 183.174 25.3983 183.174 24.535C183.174 23.3683 183.583 22.4117 184.399 21.665C185.216 20.895 186.383 20.51 187.899 20.51C188.553 20.51 189.113 20.58 189.579 20.72C190.069 20.8367 190.443 20.9883 190.699 21.175C190.886 21.4317 191.038 21.84 191.154 22.4C191.294 22.9367 191.364 23.45 191.364 23.94C191.364 24.1033 191.248 24.185 191.014 24.185C190.874 24.185 190.734 24.1617 190.594 24.115C190.454 24.045 190.373 23.9633 190.349 23.87C190.023 23.0767 189.626 22.4817 189.159 22.085C188.716 21.6883 188.168 21.49 187.514 21.49C186.908 21.49 186.383 21.6767 185.939 22.05C185.496 22.4233 185.274 22.925 185.274 23.555C185.274 24.115 185.438 24.605 185.764 25.025C186.114 25.4217 186.756 25.8883 187.689 26.425C189.159 27.265 190.198 28.0233 190.804 28.7C191.411 29.3533 191.714 30.1933 191.714 31.22C191.714 32.48 191.236 33.5067 190.279 34.3C189.323 35.0933 188.086 35.49 186.569 35.49ZM199.458 35.49C198.291 35.49 197.393 35.14 196.763 34.44C196.133 33.7167 195.818 32.6783 195.818 31.325V23.205C195.818 22.995 195.736 22.855 195.573 22.785C195.433 22.715 195.141 22.68 194.698 22.68H194.488C194.371 22.68 194.266 22.61 194.173 22.47C194.103 22.33 194.068 22.1667 194.068 21.98C194.068 21.9333 194.091 21.875 194.138 21.805C194.208 21.7117 194.266 21.6417 194.313 21.595C195.573 20.7083 196.611 19.775 197.428 18.795C197.521 18.6783 197.614 18.585 197.708 18.515C197.801 18.4217 197.906 18.375 198.023 18.375C198.349 18.375 198.501 18.5033 198.478 18.76L198.303 20.335V20.475C198.303 20.685 198.373 20.825 198.513 20.895C198.653 20.965 198.863 21 199.143 21H203.133C203.226 21 203.308 21.0817 203.378 21.245C203.448 21.385 203.483 21.56 203.483 21.77C203.483 21.98 203.448 22.19 203.378 22.4C203.308 22.5867 203.226 22.68 203.133 22.68H199.668C199.038 22.68 198.641 22.7267 198.478 22.82C198.338 22.9133 198.268 23.1933 198.268 23.66V30.555C198.268 31.5117 198.466 32.2583 198.863 32.795C199.259 33.3083 199.831 33.565 200.578 33.565C201.231 33.565 201.744 33.5183 202.118 33.425C202.514 33.3317 202.864 33.1683 203.168 32.935L203.308 32.865C203.471 32.865 203.553 33.0283 203.553 33.355C203.553 33.495 203.343 33.7517 202.923 34.125C202.503 34.475 201.978 34.79 201.348 35.07C200.741 35.35 200.111 35.49 199.458 35.49ZM207.944 35.49C207.547 35.49 207.127 35.3267 206.684 35C206.24 34.6967 205.867 34.3117 205.564 33.845C205.284 33.355 205.144 32.9 205.144 32.48C205.144 31.7567 205.33 31.185 205.704 30.765C206.1 30.345 206.742 29.9483 207.629 29.575L211.199 28.105C211.642 27.9183 211.91 27.755 212.004 27.615C212.097 27.475 212.155 27.1717 212.179 26.705L212.249 24.465C212.272 23.835 212.097 23.31 211.724 22.89C211.35 22.4467 210.837 22.225 210.184 22.225C209.834 22.225 209.484 22.2833 209.134 22.4C208.784 22.5167 208.492 22.6683 208.259 22.855C208.025 23.0183 207.909 23.3567 207.909 23.87L207.944 24.5C207.944 24.6867 207.64 24.9433 207.034 25.27C206.45 25.5733 205.984 25.725 205.634 25.725C205.517 25.725 205.424 25.7017 205.354 25.655C205.284 25.585 205.249 25.5033 205.249 25.41C205.249 25.0367 205.365 24.64 205.599 24.22C205.855 23.7767 206.205 23.3683 206.649 22.995C207.442 22.2717 208.329 21.6767 209.309 21.21C210.312 20.7433 211.164 20.51 211.864 20.51C212.704 20.51 213.392 20.8133 213.929 21.42C214.489 22.0033 214.757 22.7383 214.734 23.625L214.559 32.025C214.535 32.515 214.64 32.9117 214.874 33.215C215.107 33.5183 215.422 33.67 215.819 33.67C216.402 33.67 216.834 33.5417 217.114 33.285C217.23 33.1683 217.324 33.11 217.394 33.11C217.51 33.11 217.604 33.145 217.674 33.215C217.744 33.285 217.779 33.3783 217.779 33.495C217.779 33.5883 217.744 33.7167 217.674 33.88C217.604 34.02 217.51 34.1483 217.394 34.265C217.02 34.6383 216.612 34.93 216.169 35.14C215.749 35.3733 215.352 35.49 214.979 35.49C213.905 35.49 213.054 34.8833 212.424 33.67H212.319C211.549 34.3 210.814 34.755 210.114 35.035C209.414 35.3383 208.69 35.49 207.944 35.49ZM209.589 33.81C210.405 33.81 211.094 33.53 211.654 32.97C211.794 32.83 211.899 32.655 211.969 32.445C212.039 32.235 212.085 31.9317 212.109 31.535L212.179 29.82V29.61C212.179 29.4233 212.155 29.295 212.109 29.225C212.062 29.1317 211.98 29.085 211.864 29.085C211.724 29.085 211.49 29.1433 211.164 29.26C209.997 29.68 209.157 30.1233 208.644 30.59C208.13 31.0567 207.874 31.5117 207.874 31.955C207.874 32.5383 208.037 32.9933 208.364 33.32C208.714 33.6467 209.122 33.81 209.589 33.81Z" fill="#010A5C"/>
<line x1="105" y1="39.75" x2="147" y2="39.75" stroke="#E3C24A" stroke-width="2.5"/>
<path d="M1.49803 34.11C1.0727 34.11 0.860031 34.0293 0.860031 33.868C0.860031 33.7653 0.918698 33.6847 1.03603 33.626C1.15336 33.5673 1.3367 33.516 1.58603 33.472C2.15803 33.3693 2.5687 33.2007 2.81803 32.966C3.06736 32.7167 3.19203 32.328 3.19203 31.8V22.516C3.19203 21.812 3.0967 21.2913 2.90603 20.954C2.73003 20.6167 2.37803 20.404 1.85003 20.316C1.36603 20.228 1.12403 20.0813 1.12403 19.876C1.12403 19.7147 1.3367 19.634 1.76203 19.634C2.3927 19.634 2.80336 19.6413 2.99403 19.656H3.91803C4.13803 19.656 4.3947 19.6487 4.68803 19.634C4.98136 19.6193 5.20136 19.6047 5.34803 19.59C5.72936 19.546 6.0667 19.524 6.36003 19.524C8.0467 19.524 9.39603 19.876 10.408 20.58C11.42 21.2693 11.926 22.2227 11.926 23.44C11.926 24.364 11.7427 25.2073 11.376 25.97C11.024 26.718 10.474 27.312 9.72603 27.752C8.9927 28.192 8.08336 28.412 6.99803 28.412C6.7047 28.412 6.4627 28.368 6.27203 28.28C6.09603 28.192 6.00803 28.0967 6.00803 27.994C6.00803 27.9353 6.0447 27.8693 6.11803 27.796C6.20603 27.7227 6.2867 27.686 6.36003 27.686C6.40403 27.686 6.51403 27.6933 6.69003 27.708C6.8807 27.7227 7.10803 27.73 7.37203 27.73C8.23736 27.73 8.89736 27.3707 9.35203 26.652C9.8067 25.9333 10.034 24.914 10.034 23.594C10.034 22.4647 9.6967 21.6067 9.02203 21.02C8.36203 20.4333 7.4747 20.14 6.36003 20.14C5.42136 20.14 4.95203 20.448 4.95203 21.064V31.558C4.95203 32.1153 5.06203 32.548 5.28203 32.856C5.5167 33.164 5.89803 33.3693 6.42603 33.472C6.67536 33.516 6.8587 33.5673 6.97603 33.626C7.09336 33.6847 7.15203 33.7653 7.15203 33.868C7.15203 34.0293 6.93936 34.11 6.51403 34.11C6.0447 34.11 5.61936 34.0807 5.23803 34.022C4.97403 33.978 4.6807 33.956 4.35803 33.956C4.09403 33.956 3.8227 33.9707 3.54403 34C3.28003 34.0147 3.08936 34.022 2.97203 34.022C2.38536 34.0807 1.89403 34.11 1.49803 34.11ZM16.523 34.308C15.7163 34.308 14.9757 34.1173 14.301 33.736C13.641 33.3547 13.113 32.8267 12.717 32.152C12.3357 31.4773 12.145 30.722 12.145 29.886C12.145 29.0793 12.3577 28.2873 12.783 27.51C13.223 26.7327 13.8097 26.102 14.543 25.618C15.291 25.134 16.0977 24.892 16.963 24.892C17.799 24.892 18.5617 25.0973 19.251 25.508C19.9403 25.904 20.483 26.4467 20.879 27.136C21.2897 27.8107 21.495 28.5367 21.495 29.314C21.495 30.194 21.3043 31.0153 20.923 31.778C20.5417 32.5407 19.977 33.1567 19.229 33.626C18.481 34.0807 17.579 34.308 16.523 34.308ZM16.985 33.648C18.085 33.648 18.8403 33.2447 19.251 32.438C19.5443 31.866 19.691 31.0007 19.691 29.842C19.691 29.138 19.559 28.456 19.295 27.796C19.031 27.136 18.6643 26.6007 18.195 26.19C17.7257 25.7793 17.1903 25.574 16.589 25.574C16.1637 25.574 15.797 25.64 15.489 25.772C15.181 25.904 14.9023 26.1313 14.653 26.454C14.389 26.7913 14.2057 27.2093 14.103 27.708C14.0003 28.192 13.949 28.7493 13.949 29.38C13.949 30.1133 14.081 30.81 14.345 31.47C14.609 32.1153 14.9683 32.6433 15.423 33.054C15.8923 33.45 16.413 33.648 16.985 33.648ZM26.9173 34.506C26.844 34.506 26.7926 34.4547 26.7633 34.352L23.7053 26.762C23.6026 26.4833 23.4413 26.256 23.2213 26.08C23.016 25.8893 22.796 25.7573 22.5613 25.684C22.3853 25.6253 22.2533 25.574 22.1653 25.53C22.092 25.4713 22.0553 25.3907 22.0553 25.288C22.0553 25.156 22.202 25.09 22.4953 25.09C22.6713 25.09 22.9353 25.1047 23.2873 25.134C23.5513 25.178 23.8226 25.2 24.1013 25.2C24.4093 25.2 24.7173 25.178 25.0253 25.134C25.4066 25.1047 25.7073 25.09 25.9273 25.09C26.03 25.09 26.1253 25.1047 26.2133 25.134C26.316 25.1633 26.3673 25.2147 26.3673 25.288C26.3673 25.3907 26.3233 25.4713 26.2353 25.53C26.162 25.574 26.0373 25.6253 25.8613 25.684C25.7146 25.728 25.5973 25.8307 25.5093 25.992C25.436 26.1533 25.3993 26.344 25.3993 26.564C25.3993 26.7547 25.436 26.9453 25.5093 27.136L27.2253 31.558C27.24 31.6167 27.2766 31.646 27.3353 31.646C27.394 31.646 27.4306 31.6167 27.4453 31.558L28.9413 27.994C29.0586 27.7153 29.1173 27.3633 29.1173 26.938C29.1173 26.6447 29.0073 26.3953 28.7873 26.19C28.5673 25.97 28.3033 25.8013 27.9953 25.684C27.8193 25.6253 27.6873 25.574 27.5993 25.53C27.526 25.4713 27.4893 25.3907 27.4893 25.288C27.4893 25.156 27.636 25.09 27.9293 25.09C28.0173 25.09 28.1933 25.1047 28.4573 25.134C29.0293 25.178 29.4033 25.2 29.5793 25.2C29.6966 25.2 30.0853 25.178 30.7453 25.134C31.068 25.1047 31.2953 25.09 31.4273 25.09C31.7206 25.09 31.8673 25.156 31.8673 25.288C31.8673 25.3907 31.8233 25.4713 31.7353 25.53C31.662 25.574 31.5373 25.6253 31.3613 25.684C31.1266 25.7573 30.9433 25.8527 30.8113 25.97C30.6793 26.0727 30.6133 26.2413 30.6133 26.476C30.6133 26.6667 30.6646 26.8867 30.7673 27.136L32.4173 31.382C32.4906 31.5433 32.5493 31.624 32.5933 31.624C32.652 31.624 32.7106 31.5507 32.7693 31.404L34.4413 27.51C34.544 27.29 34.5953 27.004 34.5953 26.652C34.5953 26.4173 34.5146 26.212 34.3533 26.036C34.192 25.86 34.016 25.7427 33.8253 25.684C33.6493 25.6253 33.5173 25.574 33.4293 25.53C33.356 25.4713 33.3193 25.3907 33.3193 25.288C33.3193 25.156 33.466 25.09 33.7593 25.09C33.95 25.09 34.192 25.1047 34.4853 25.134C34.72 25.178 35.028 25.2 35.4093 25.2C35.644 25.2 35.9153 25.178 36.2233 25.134C36.3993 25.1047 36.5533 25.09 36.6853 25.09C36.9786 25.09 37.1253 25.156 37.1253 25.288C37.1253 25.3907 37.0813 25.4713 36.9933 25.53C36.92 25.574 36.7953 25.6253 36.6193 25.684C36.414 25.7427 36.2086 25.9113 36.0033 26.19C35.798 26.454 35.6146 26.7693 35.4533 27.136L32.4393 34.352C32.3953 34.4547 32.3293 34.506 32.2413 34.506C32.1826 34.506 32.124 34.4547 32.0653 34.352L29.7773 28.676C29.7333 28.5587 29.6893 28.4927 29.6453 28.478C29.6013 28.478 29.55 28.5513 29.4913 28.698L27.0933 34.352C27.0493 34.4547 26.9906 34.506 26.9173 34.506ZM41.1333 34.33C40.3413 34.33 39.6373 34.132 39.0213 33.736C38.4199 33.34 37.9506 32.7827 37.6133 32.064C37.2759 31.3307 37.1073 30.4873 37.1073 29.534C37.1073 28.7127 37.2979 27.9427 37.6793 27.224C38.0753 26.5053 38.5959 25.9407 39.2413 25.53C39.8866 25.1047 40.5906 24.892 41.3533 24.892C42.2333 24.892 42.9519 25.156 43.5093 25.684C44.0813 26.1973 44.3673 26.8573 44.3673 27.664C44.3673 28.1187 44.1473 28.346 43.7073 28.346H39.0653C38.8599 28.346 38.7133 28.4047 38.6253 28.522C38.5519 28.6247 38.5153 28.8373 38.5153 29.16C38.5153 29.8493 38.6619 30.4873 38.9553 31.074C39.2633 31.6607 39.6739 32.13 40.1873 32.482C40.7153 32.8193 41.2873 32.988 41.9033 32.988C42.7686 32.988 43.4873 32.658 44.0593 31.998C44.1473 31.8807 44.2279 31.822 44.3013 31.822C44.4186 31.822 44.4773 31.8953 44.4773 32.042C44.4773 32.3207 44.3453 32.6287 44.0813 32.966C43.7586 33.3913 43.3333 33.7287 42.8053 33.978C42.2773 34.2127 41.7199 34.33 41.1333 34.33ZM41.1113 27.664C41.8006 27.664 42.3433 27.6273 42.7393 27.554C42.8566 27.5393 42.9153 27.378 42.9153 27.07C42.9153 26.6447 42.7246 26.2853 42.3433 25.992C41.9766 25.684 41.5366 25.53 41.0233 25.53C40.7006 25.53 40.3633 25.6327 40.0113 25.838C39.6739 26.0287 39.3953 26.2707 39.1753 26.564C38.9553 26.8573 38.8453 27.1507 38.8453 27.444C38.8453 27.5907 38.9333 27.664 39.1093 27.664H41.1113ZM46.0975 34.066C45.8042 34.066 45.6575 33.9853 45.6575 33.824C45.6575 33.7213 45.6942 33.6553 45.7675 33.626C45.8409 33.582 45.9729 33.5307 46.1635 33.472C46.7209 33.34 46.9995 33.0613 46.9995 32.636V27.906C46.9995 27.466 46.9335 27.114 46.8015 26.85C46.6695 26.5713 46.4349 26.3953 46.0975 26.322C46.0389 26.3073 45.9875 26.2707 45.9435 26.212C45.8995 26.1533 45.8775 26.0947 45.8775 26.036C45.8775 25.9773 45.8995 25.926 45.9435 25.882C45.9875 25.8233 46.0315 25.7867 46.0755 25.772C46.6622 25.5813 47.3882 25.222 48.2535 24.694C48.4149 24.5913 48.5249 24.54 48.5835 24.54C48.6569 24.54 48.6935 24.5913 48.6935 24.694C48.6935 25.09 48.6715 25.64 48.6275 26.344C48.6275 26.3733 48.6422 26.388 48.6715 26.388C49.0382 25.948 49.4489 25.5887 49.9035 25.31C50.3582 25.0313 50.7909 24.892 51.2015 24.892C51.5095 24.892 51.7589 24.958 51.9495 25.09C52.1549 25.222 52.2575 25.3907 52.2575 25.596C52.2575 25.8307 52.1622 26.08 51.9715 26.344C51.7955 26.608 51.6049 26.74 51.3995 26.74C51.2529 26.74 51.0475 26.674 50.7835 26.542C50.7395 26.5273 50.6369 26.4907 50.4755 26.432C50.3289 26.3733 50.1969 26.344 50.0795 26.344C49.6542 26.344 49.2949 26.4833 49.0015 26.762C48.7082 27.0407 48.5615 27.5173 48.5615 28.192V32.636C48.5615 32.8267 48.6569 32.988 48.8475 33.12C49.0382 33.2373 49.3315 33.3547 49.7275 33.472C49.9035 33.5307 50.0282 33.582 50.1015 33.626C50.1895 33.67 50.2335 33.736 50.2335 33.824C50.2335 33.9853 50.0869 34.066 49.7935 34.066C49.3975 34.066 49.0529 34.044 48.7595 34C48.4075 33.9707 48.1142 33.956 47.8795 33.956C47.6449 33.956 47.3662 33.9707 47.0435 34C46.8089 34.044 46.4935 34.066 46.0975 34.066ZM57.0532 34.33C56.2612 34.33 55.5572 34.132 54.9412 33.736C54.3399 33.34 53.8705 32.7827 53.5332 32.064C53.1959 31.3307 53.0272 30.4873 53.0272 29.534C53.0272 28.7127 53.2179 27.9427 53.5992 27.224C53.9952 26.5053 54.5159 25.9407 55.1612 25.53C55.8065 25.1047 56.5105 24.892 57.2732 24.892C58.1532 24.892 58.8719 25.156 59.4292 25.684C60.0012 26.1973 60.2872 26.8573 60.2872 27.664C60.2872 28.1187 60.0672 28.346 59.6272 28.346H54.9852C54.7799 28.346 54.6332 28.4047 54.5452 28.522C54.4719 28.6247 54.4352 28.8373 54.4352 29.16C54.4352 29.8493 54.5819 30.4873 54.8752 31.074C55.1832 31.6607 55.5939 32.13 56.1072 32.482C56.6352 32.8193 57.2072 32.988 57.8232 32.988C58.6885 32.988 59.4072 32.658 59.9792 31.998C60.0672 31.8807 60.1479 31.822 60.2212 31.822C60.3385 31.822 60.3972 31.8953 60.3972 32.042C60.3972 32.3207 60.2652 32.6287 60.0012 32.966C59.6785 33.3913 59.2532 33.7287 58.7252 33.978C58.1972 34.2127 57.6399 34.33 57.0532 34.33ZM57.0312 27.664C57.7205 27.664 58.2632 27.6273 58.6592 27.554C58.7765 27.5393 58.8352 27.378 58.8352 27.07C58.8352 26.6447 58.6445 26.2853 58.2632 25.992C57.8965 25.684 57.4565 25.53 56.9432 25.53C56.6205 25.53 56.2832 25.6327 55.9312 25.838C55.5939 26.0287 55.3152 26.2707 55.0952 26.564C54.8752 26.8573 54.7652 27.1507 54.7652 27.444C54.7652 27.5907 54.8532 27.664 55.0292 27.664H57.0312ZM68.5786 34.418C68.5493 34.418 68.4979 34.3887 68.4246 34.33C68.3659 34.2713 68.3366 34.2273 68.3366 34.198L68.3806 33.626C68.4246 33.362 68.4466 33.1127 68.4466 32.878V32.746C68.1826 33.1567 67.8013 33.5233 67.3026 33.846C66.8039 34.154 66.2246 34.308 65.5646 34.308C64.7579 34.308 64.0466 34.0953 63.4306 33.67C62.8146 33.2447 62.3379 32.6873 62.0006 31.998C61.6633 31.294 61.4946 30.568 61.4946 29.82C61.4946 28.9547 61.6926 28.148 62.0886 27.4C62.4993 26.6373 63.0786 26.0287 63.8266 25.574C64.5746 25.1193 65.4473 24.892 66.4446 24.892C66.7233 24.892 67.0093 24.9213 67.3026 24.98C67.5959 25.024 67.8379 25.0753 68.0286 25.134C68.1606 25.178 68.2559 25.2 68.3146 25.2C68.3586 25.2 68.3953 25.156 68.4246 25.068C68.4539 24.98 68.4686 24.848 68.4686 24.672V21.548C68.4686 20.9907 68.3806 20.602 68.2046 20.382C68.0286 20.162 67.7499 20.0153 67.3686 19.942C67.2366 19.9127 67.1706 19.8173 67.1706 19.656C67.1706 19.524 67.2293 19.436 67.3466 19.392C68.1239 19.2013 68.7033 19.0253 69.0846 18.864C69.4659 18.688 69.6786 18.5927 69.7226 18.578C69.8399 18.534 69.9353 18.512 70.0086 18.512C70.0966 18.512 70.1479 18.556 70.1626 18.644C70.1626 18.732 70.1333 19.0107 70.0746 19.48C70.0306 19.9493 70.0086 20.668 70.0086 21.636V31.58C70.0086 32.0933 70.0453 32.46 70.1186 32.68C70.1919 32.9 70.3093 33.01 70.4706 33.01C70.7199 33.01 71.0353 32.988 71.4166 32.944H71.5266C71.7173 32.944 71.8126 33.01 71.8126 33.142C71.8126 33.2447 71.7759 33.34 71.7026 33.428C71.6439 33.5013 71.5779 33.538 71.5046 33.538C70.7126 33.6407 69.8546 33.89 68.9306 34.286C68.7693 34.374 68.6519 34.418 68.5786 34.418ZM66.3566 33.164C66.7379 33.164 67.1119 33.0687 67.4786 32.878C67.8453 32.6727 68.1679 32.4087 68.4466 32.086L68.4686 28.126C68.4686 27.73 68.3513 27.3413 68.1166 26.96C67.8966 26.5787 67.5739 26.2707 67.1486 26.036C66.7379 25.7867 66.2759 25.662 65.7626 25.662C65.3666 25.662 64.9633 25.772 64.5526 25.992C64.1419 26.212 63.7899 26.5933 63.4966 27.136C63.2033 27.6787 63.0566 28.4047 63.0566 29.314C63.0566 30.326 63.2473 31.118 63.6286 31.69C64.0099 32.262 64.4499 32.6507 64.9486 32.856C65.4473 33.0613 65.9166 33.164 66.3566 33.164ZM81.9558 34.308C81.3985 34.308 80.7678 34.2127 80.0638 34.022C79.9758 33.9927 79.8805 33.9633 79.7778 33.934C79.6898 33.9047 79.5945 33.8753 79.4918 33.846C79.3598 33.8167 79.2131 33.78 79.0518 33.736C78.8905 33.692 78.7878 33.67 78.7438 33.67C78.6118 33.67 78.4505 33.7653 78.2598 33.956C78.1865 34.0293 78.1205 34.066 78.0618 34.066C77.9885 34.066 77.9151 34.044 77.8418 34C77.7831 33.9413 77.7538 33.8753 77.7538 33.802C77.7538 33.67 77.7758 33.494 77.8198 33.274C77.8785 32.834 77.9078 32.482 77.9078 32.218V21.548C77.9078 21.1667 77.8125 20.8367 77.6218 20.558C77.4458 20.2793 77.2038 20.074 76.8958 19.942C76.7051 19.8393 76.6098 19.7293 76.6098 19.612C76.6098 19.4947 76.6978 19.4213 76.8738 19.392C77.1231 19.348 77.5045 19.2307 78.0178 19.04C78.5311 18.8347 78.9198 18.6733 79.1838 18.556C79.2718 18.512 79.3378 18.49 79.3818 18.49C79.4111 18.49 79.4405 18.5047 79.4698 18.534C79.4991 18.5633 79.5138 18.6 79.5138 18.644C79.5138 18.688 79.4991 18.93 79.4698 19.37C79.4551 19.7953 79.4478 20.3233 79.4478 20.954V25.464C79.4478 25.7427 79.4625 25.9333 79.4918 26.036C79.5211 26.124 79.5725 26.1753 79.6458 26.19C80.1005 25.8087 80.6285 25.5007 81.2298 25.266C81.8311 25.0167 82.3738 24.892 82.8578 24.892C83.5911 24.892 84.2585 25.0827 84.8598 25.464C85.4611 25.8453 85.9378 26.366 86.2898 27.026C86.6418 27.686 86.8178 28.4193 86.8178 29.226C86.8178 30.2233 86.6125 31.1107 86.2018 31.888C85.7911 32.6507 85.2191 33.2447 84.4858 33.67C83.7525 34.0953 82.9091 34.308 81.9558 34.308ZM82.4618 33.626C83.2831 33.626 83.9358 33.2593 84.4198 32.526C84.9185 31.778 85.1678 30.8393 85.1678 29.71C85.1678 29.1087 85.0505 28.5073 84.8158 27.906C84.5958 27.3047 84.2585 26.806 83.8038 26.41C83.3491 26.014 82.7918 25.816 82.1318 25.816C81.0611 25.816 80.1665 26.1533 79.4478 26.828V31.096C79.4478 31.844 79.7485 32.4527 80.3498 32.922C80.9511 33.3913 81.6551 33.626 82.4618 33.626ZM88.4295 40.27C88.1068 40.27 87.8355 40.1967 87.6155 40.05C87.4102 39.9033 87.3075 39.676 87.3075 39.368C87.3075 39.0893 87.3735 38.8547 87.5055 38.664C87.6375 38.4733 87.8135 38.378 88.0335 38.378C88.1508 38.378 88.3048 38.4 88.4955 38.444C88.7008 38.488 88.8402 38.51 88.9135 38.51C89.0895 38.51 89.2288 38.4293 89.3315 38.268C89.6102 37.8427 89.9182 37.278 90.2555 36.574C90.5928 35.8847 90.9082 35.144 91.2015 34.352C91.2455 34.22 91.2675 34.0513 91.2675 33.846C91.2675 33.582 91.2382 33.3693 91.1795 33.208L88.6275 26.762C88.3782 26.1607 88.0482 25.8013 87.6375 25.684C87.4615 25.6253 87.3295 25.574 87.2415 25.53C87.1682 25.4713 87.1315 25.3907 87.1315 25.288C87.1315 25.156 87.2782 25.09 87.5715 25.09C87.9528 25.09 88.2388 25.112 88.4295 25.156C88.6935 25.1853 88.9428 25.2 89.1775 25.2C89.4268 25.2 89.6835 25.1853 89.9475 25.156C90.1675 25.112 90.4682 25.09 90.8495 25.09C90.9522 25.09 91.0475 25.112 91.1355 25.156C91.2382 25.2 91.2895 25.2587 91.2895 25.332C91.2895 25.4347 91.2162 25.53 91.0695 25.618C90.9375 25.706 90.7982 25.772 90.6515 25.816C90.4902 25.86 90.3728 25.9407 90.2995 26.058C90.2408 26.1607 90.2115 26.3147 90.2115 26.52C90.2115 26.652 90.2702 26.8573 90.3875 27.136L92.1695 31.536C92.1988 31.624 92.2428 31.668 92.3015 31.668C92.3455 31.668 92.3822 31.624 92.4115 31.536L93.9295 27.51C93.9735 27.4073 94.0102 27.2753 94.0395 27.114C94.0835 26.938 94.1055 26.7987 94.1055 26.696C94.1055 26.4467 94.0688 26.2633 93.9955 26.146C93.9222 26.014 93.8122 25.9187 93.6655 25.86C93.2402 25.6693 93.0275 25.4933 93.0275 25.332C93.0275 25.2587 93.0715 25.2 93.1595 25.156C93.2622 25.112 93.3648 25.09 93.4675 25.09C93.5408 25.09 93.7095 25.1047 93.9735 25.134C94.5015 25.178 94.8535 25.2 95.0295 25.2C95.2348 25.2 95.5135 25.178 95.8655 25.134C96.0415 25.1047 96.1955 25.09 96.3275 25.09C96.6208 25.09 96.7675 25.156 96.7675 25.288C96.7675 25.3907 96.7235 25.4713 96.6355 25.53C96.5622 25.574 96.4375 25.6253 96.2615 25.684C96.0415 25.7573 95.8068 25.9333 95.5575 26.212C95.3082 26.4907 95.1102 26.806 94.9635 27.158L91.9715 34.286L91.6415 35.1C90.7322 37.3 90.1382 38.7227 89.8595 39.368C89.7275 39.6613 89.5368 39.8813 89.2875 40.028C89.0382 40.1893 88.7522 40.27 88.4295 40.27Z" fill="#010A5C" fill-opacity="0.55"/>
</svg>
