<svg width="100%" height="100%" viewBox="0 0 379 64" fill="none" xmlns="http://www.w3.org/2000/svg">
<path d="M224.546 49.24C224.13 49.24 223.794 49.176 223.538 49.048C223.282 48.952 223.154 48.808 223.154 48.616C223.154 48.2 223.682 47.832 224.738 47.512C225.666 47.224 226.466 46.824 227.138 46.312C227.81 45.768 228.386 44.936 228.866 43.816C230.562 39.912 232.034 36.376 233.282 33.208C234.562 30.008 236.082 26.024 237.842 21.256C238.194 20.264 238.418 19.336 238.514 18.472C238.61 18.44 238.834 18.376 239.186 18.28C239.57 18.152 239.922 17.976 240.242 17.752C240.498 17.56 240.69 17.272 240.818 16.888C240.978 16.504 241.09 16.248 241.154 16.12C241.186 16.088 241.218 16.088 241.25 16.12C241.314 16.12 241.362 16.136 241.394 16.168C241.458 16.328 241.506 16.504 241.538 16.696C241.602 16.888 241.666 17.064 241.73 17.224C244.098 24.68 246.946 33.224 250.274 42.856C250.882 44.616 251.554 45.816 252.29 46.456C253.026 47.064 253.97 47.464 255.122 47.656C255.634 47.752 256.018 47.912 256.274 48.136C256.562 48.328 256.706 48.536 256.706 48.76C256.706 49.08 256.242 49.24 255.314 49.24L252.722 49.144C250.93 49.016 249.57 48.952 248.642 48.952L243.602 49C242.674 49 242.21 48.808 242.21 48.424C242.21 48.232 242.354 48.056 242.642 47.896C242.962 47.704 243.346 47.576 243.794 47.512C245.746 47.192 246.722 46.472 246.722 45.352C246.722 44.328 246.098 41.736 244.85 37.576C244.786 37.352 244.658 37.208 244.466 37.144C244.306 37.08 244.002 37.048 243.554 37.048H234.482C234.13 37.048 233.858 37.336 233.666 37.912C233.314 38.936 232.898 40.28 232.418 41.944C231.938 43.576 231.698 44.536 231.698 44.824C231.698 45.496 231.954 46.072 232.466 46.552C233.01 47.032 233.682 47.368 234.482 47.56C235.058 47.72 235.458 47.864 235.682 47.992C235.938 48.12 236.066 48.296 236.066 48.52C236.066 48.872 235.602 49.048 234.674 49.048C234.098 49.048 233.618 49.032 233.234 49L230.306 48.952C229.762 48.952 229.154 48.968 228.482 49C227.842 49.064 227.362 49.096 227.042 49.096C226.146 49.192 225.314 49.24 224.546 49.24ZM243.218 35.464C243.41 35.464 243.57 35.448 243.698 35.416C243.826 35.384 243.89 35.32 243.89 35.224L243.794 34.744L240.05 23.032C239.858 22.456 239.714 22.168 239.618 22.168C239.554 22.168 239.426 22.44 239.234 22.984L234.866 34.744L234.77 35.128C234.77 35.288 234.834 35.384 234.962 35.416C235.122 35.448 235.394 35.464 235.778 35.464H243.218ZM274.052 49.912C273.828 49.912 273.716 49.784 273.716 49.528L273.812 48.232C273.908 47.592 273.956 47.032 273.956 46.552V46.264C272.74 47.48 271.492 48.36 270.212 48.904C268.932 49.416 267.54 49.672 266.036 49.672C264.404 49.672 263.076 49.176 262.052 48.184C261.06 47.192 260.564 45.784 260.564 43.96V34.216C260.564 33.512 260.404 32.952 260.084 32.536C259.764 32.12 259.236 31.768 258.5 31.48C258.084 31.352 257.876 31.096 257.876 30.712C257.876 30.264 258.116 30.008 258.596 29.944C259.588 29.88 260.372 29.8 260.948 29.704C261.524 29.608 262.324 29.432 263.348 29.176L263.732 29.128C264.084 29.128 264.244 29.352 264.212 29.8C264.02 31.272 263.924 32.504 263.924 33.496V42.856C263.924 44.008 264.34 45.032 265.172 45.928C266.004 46.792 266.932 47.224 267.956 47.224C268.916 47.224 269.684 47.176 270.26 47.08C270.868 46.952 271.444 46.68 271.988 46.264C272.564 45.848 273.06 45.368 273.476 44.824C273.924 44.248 274.148 43.528 274.148 42.664V33.88C274.148 33.016 273.78 32.408 273.044 32.056C272.34 31.672 271.636 31.48 270.932 31.48C270.26 31.48 269.924 31.208 269.924 30.664C269.924 30.184 270.26 29.944 270.932 29.944C272.308 29.912 273.396 29.848 274.196 29.752C275.028 29.624 275.908 29.432 276.836 29.176C277.028 29.112 277.188 29.08 277.316 29.08C277.476 29.08 277.62 29.128 277.748 29.224C277.876 29.32 277.94 29.448 277.94 29.608L277.844 30.04C277.78 30.392 277.7 30.904 277.604 31.576C277.54 32.216 277.508 32.808 277.508 33.352V44.44C277.508 46.04 277.796 46.84 278.372 46.84L279.476 46.744L280.58 46.696C281.06 46.696 281.3 46.904 281.3 47.32C281.3 47.576 281.236 47.752 281.108 47.848C281.012 47.912 280.852 47.96 280.628 47.992C279.54 48.152 278.58 48.36 277.748 48.616C276.916 48.872 276.004 49.208 275.012 49.624C274.628 49.816 274.308 49.912 274.052 49.912ZM302.341 30.376C302.501 30.376 302.645 30.44 302.773 30.568C302.901 30.696 302.965 30.872 302.965 31.096C302.965 31.384 302.805 31.688 302.485 32.008C302.325 32.168 302.197 32.248 302.101 32.248H300.805C299.941 32.248 299.461 32.376 299.365 32.632C299.173 33.208 299.077 33.944 299.077 34.84C299.077 36.44 298.725 37.944 298.021 39.352C297.317 40.728 296.373 41.832 295.189 42.664C294.037 43.496 292.789 43.912 291.445 43.912C290.517 43.912 289.669 43.752 288.901 43.432C288.325 43.72 287.845 44.056 287.461 44.44C287.077 44.824 286.885 45.16 286.885 45.448C286.885 46.792 288.965 47.592 293.125 47.848C296.069 48.008 298.261 48.488 299.701 49.288C301.141 50.088 301.861 51.224 301.861 52.696C301.861 54.296 301.333 55.896 300.277 57.496C299.221 59.096 297.861 60.392 296.197 61.384C294.533 62.408 292.853 62.92 291.157 62.92C288.437 62.92 286.277 62.408 284.677 61.384C283.109 60.36 282.325 58.952 282.325 57.16C282.325 56.328 282.453 55.624 282.709 55.048C282.965 54.504 283.365 54.008 283.909 53.56L285.829 52.024L287.941 50.344C286.437 50.056 285.349 49.64 284.677 49.096C284.037 48.552 283.717 47.816 283.717 46.888C283.717 46.312 284.085 45.72 284.821 45.112C285.589 44.536 286.181 44.088 286.597 43.768C287.013 43.416 287.317 43.096 287.509 42.808C286.357 42.136 285.429 41.256 284.725 40.168C284.021 39.048 283.669 37.864 283.669 36.616C283.669 35.176 284.053 33.88 284.821 32.728C285.589 31.576 286.613 30.68 287.893 30.04C289.173 29.368 290.549 29.032 292.021 29.032C292.981 29.032 294.133 29.256 295.477 29.704C295.701 29.8 296.037 29.912 296.485 30.04C297.189 30.232 297.765 30.36 298.213 30.424C298.661 30.488 299.157 30.52 299.701 30.52C300.053 30.52 300.581 30.488 301.285 30.424L302.341 30.376ZM291.733 42.232C292.917 42.232 293.909 41.624 294.709 40.408C295.541 39.16 295.957 37.624 295.957 35.8C295.957 34.904 295.733 34.04 295.285 33.208C294.869 32.376 294.309 31.72 293.605 31.24C292.901 30.728 292.165 30.472 291.397 30.472C290.661 30.472 289.957 30.728 289.285 31.24C288.645 31.752 288.117 32.44 287.701 33.304C287.317 34.168 287.125 35.08 287.125 36.04C287.125 37.128 287.333 38.152 287.749 39.112C288.165 40.072 288.725 40.84 289.429 41.416C290.133 41.96 290.901 42.232 291.733 42.232ZM298.933 54.232C298.933 53.176 298.373 52.376 297.253 51.832C296.133 51.288 294.293 50.936 291.733 50.776C290.805 50.712 290.117 50.648 289.669 50.584C288.293 51.512 287.317 52.408 286.741 53.272C286.197 54.168 285.925 55.224 285.925 56.44C285.925 57.72 286.485 58.792 287.605 59.656C288.757 60.552 290.165 61 291.829 61C293.717 61 295.237 60.568 296.389 59.704C297.189 59.096 297.813 58.296 298.261 57.304C298.709 56.344 298.933 55.32 298.933 54.232ZM320.224 49.912C320 49.912 319.888 49.784 319.888 49.528L319.984 48.232C320.08 47.592 320.128 47.032 320.128 46.552V46.264C318.912 47.48 317.664 48.36 316.384 48.904C315.104 49.416 313.712 49.672 312.208 49.672C310.576 49.672 309.248 49.176 308.224 48.184C307.232 47.192 306.736 45.784 306.736 43.96V34.216C306.736 33.512 306.576 32.952 306.256 32.536C305.936 32.12 305.408 31.768 304.672 31.48C304.256 31.352 304.048 31.096 304.048 30.712C304.048 30.264 304.288 30.008 304.768 29.944C305.76 29.88 306.544 29.8 307.12 29.704C307.696 29.608 308.496 29.432 309.52 29.176L309.904 29.128C310.256 29.128 310.416 29.352 310.384 29.8C310.192 31.272 310.096 32.504 310.096 33.496V42.856C310.096 44.008 310.512 45.032 311.344 45.928C312.176 46.792 313.104 47.224 314.128 47.224C315.088 47.224 315.856 47.176 316.432 47.08C317.04 46.952 317.616 46.68 318.16 46.264C318.736 45.848 319.232 45.368 319.648 44.824C320.096 44.248 320.32 43.528 320.32 42.664V33.88C320.32 33.016 319.952 32.408 319.216 32.056C318.512 31.672 317.808 31.48 317.104 31.48C316.432 31.48 316.096 31.208 316.096 30.664C316.096 30.184 316.432 29.944 317.104 29.944C318.48 29.912 319.568 29.848 320.368 29.752C321.2 29.624 322.08 29.432 323.008 29.176C323.2 29.112 323.36 29.08 323.488 29.08C323.648 29.08 323.792 29.128 323.92 29.224C324.048 29.32 324.112 29.448 324.112 29.608L324.016 30.04C323.952 30.392 323.872 30.904 323.776 31.576C323.712 32.216 323.68 32.808 323.68 33.352V44.44C323.68 46.04 323.968 46.84 324.544 46.84L325.648 46.744L326.752 46.696C327.232 46.696 327.472 46.904 327.472 47.32C327.472 47.576 327.408 47.752 327.28 47.848C327.184 47.912 327.024 47.96 326.8 47.992C325.712 48.152 324.752 48.36 323.92 48.616C323.088 48.872 322.176 49.208 321.184 49.624C320.8 49.816 320.48 49.912 320.224 49.912ZM334.881 49.672C333.889 49.672 332.961 49.512 332.097 49.192C331.233 48.904 330.497 48.488 329.889 47.944C329.633 47.432 329.457 46.152 329.361 44.104C329.361 43.816 329.569 43.672 329.985 43.672C330.337 43.672 330.529 43.784 330.561 44.008C330.945 45.48 331.569 46.584 332.433 47.32C333.329 48.024 334.289 48.376 335.313 48.376C336.241 48.376 337.025 48.072 337.665 47.464C338.337 46.824 338.673 46.04 338.673 45.112C338.673 44.28 338.385 43.56 337.809 42.952C337.265 42.312 336.257 41.528 334.785 40.6C333.121 39.576 331.937 38.632 331.233 37.768C330.561 36.872 330.225 35.832 330.225 34.648C330.225 33.048 330.785 31.736 331.905 30.712C333.025 29.656 334.625 29.128 336.705 29.128C337.601 29.128 338.369 29.224 339.009 29.416C339.681 29.576 340.193 29.784 340.545 30.04C340.801 30.392 341.009 30.952 341.169 31.72C341.361 32.456 341.457 33.16 341.457 33.832C341.457 34.056 341.297 34.168 340.977 34.168C340.785 34.168 340.593 34.136 340.401 34.072C340.209 33.976 340.097 33.864 340.065 33.736C339.617 32.648 339.073 31.832 338.433 31.288C337.825 30.744 337.073 30.472 336.177 30.472C335.345 30.472 334.625 30.728 334.017 31.24C333.409 31.752 333.105 32.44 333.105 33.304C333.105 34.072 333.329 34.744 333.777 35.32C334.257 35.864 335.137 36.504 336.417 37.24C338.433 38.392 339.857 39.432 340.689 40.36C341.521 41.256 341.937 42.408 341.937 43.816C341.937 45.544 341.281 46.952 339.969 48.04C338.657 49.128 336.961 49.672 334.881 49.672ZM352.556 49.672C350.956 49.672 349.724 49.192 348.86 48.232C347.996 47.24 347.564 45.816 347.564 43.96V32.824C347.564 32.536 347.452 32.344 347.228 32.248C347.036 32.152 346.636 32.104 346.028 32.104H345.74C345.58 32.104 345.436 32.008 345.308 31.816C345.212 31.624 345.164 31.4 345.164 31.144C345.164 31.08 345.196 31 345.26 30.904C345.356 30.776 345.436 30.68 345.5 30.616C347.228 29.4 348.652 28.12 349.772 26.776C349.9 26.616 350.028 26.488 350.156 26.392C350.284 26.264 350.428 26.2 350.588 26.2C351.036 26.2 351.244 26.376 351.212 26.728L350.972 28.888V29.08C350.972 29.368 351.068 29.56 351.26 29.656C351.452 29.752 351.74 29.8 352.124 29.8H357.596C357.724 29.8 357.836 29.912 357.932 30.136C358.028 30.328 358.076 30.568 358.076 30.856C358.076 31.144 358.028 31.432 357.932 31.72C357.836 31.976 357.724 32.104 357.596 32.104H352.844C351.98 32.104 351.436 32.168 351.212 32.296C351.02 32.424 350.924 32.808 350.924 33.448V42.904C350.924 44.216 351.196 45.24 351.74 45.976C352.284 46.68 353.068 47.032 354.092 47.032C354.988 47.032 355.692 46.968 356.204 46.84C356.748 46.712 357.228 46.488 357.644 46.168L357.836 46.072C358.06 46.072 358.172 46.296 358.172 46.744C358.172 46.936 357.884 47.288 357.308 47.8C356.732 48.28 356.012 48.712 355.148 49.096C354.316 49.48 353.452 49.672 352.556 49.672ZM364.194 49.672C363.65 49.672 363.074 49.448 362.466 49C361.858 48.584 361.346 48.056 360.93 47.416C360.546 46.744 360.354 46.12 360.354 45.544C360.354 44.552 360.61 43.768 361.122 43.192C361.666 42.616 362.546 42.072 363.762 41.56L368.658 39.544C369.266 39.288 369.634 39.064 369.762 38.872C369.89 38.68 369.97 38.264 370.002 37.624L370.098 34.552C370.13 33.688 369.89 32.968 369.378 32.392C368.866 31.784 368.162 31.48 367.266 31.48C366.786 31.48 366.306 31.56 365.826 31.72C365.346 31.88 364.946 32.088 364.626 32.344C364.306 32.568 364.146 33.032 364.146 33.736L364.194 34.6C364.194 34.856 363.778 35.208 362.946 35.656C362.146 36.072 361.506 36.28 361.026 36.28C360.866 36.28 360.738 36.248 360.642 36.184C360.546 36.088 360.498 35.976 360.498 35.848C360.498 35.336 360.658 34.792 360.978 34.216C361.33 33.608 361.81 33.048 362.418 32.536C363.506 31.544 364.722 30.728 366.066 30.088C367.442 29.448 368.61 29.128 369.57 29.128C370.722 29.128 371.666 29.544 372.402 30.376C373.17 31.176 373.538 32.184 373.506 33.4L373.266 44.92C373.234 45.592 373.378 46.136 373.698 46.552C374.018 46.968 374.45 47.176 374.994 47.176C375.794 47.176 376.386 47 376.77 46.648C376.93 46.488 377.058 46.408 377.154 46.408C377.314 46.408 377.442 46.456 377.538 46.552C377.634 46.648 377.682 46.776 377.682 46.936C377.682 47.064 377.634 47.24 377.538 47.464C377.442 47.656 377.314 47.832 377.154 47.992C376.642 48.504 376.082 48.904 375.474 49.192C374.898 49.512 374.354 49.672 373.842 49.672C372.37 49.672 371.202 48.84 370.338 47.176H370.194C369.138 48.04 368.13 48.664 367.17 49.048C366.21 49.464 365.218 49.672 364.194 49.672ZM366.45 47.368C367.57 47.368 368.514 46.984 369.282 46.216C369.474 46.024 369.618 45.784 369.714 45.496C369.81 45.208 369.874 44.792 369.906 44.248L370.002 41.896V41.608C370.002 41.352 369.97 41.176 369.906 41.08C369.842 40.952 369.73 40.888 369.57 40.888C369.378 40.888 369.058 40.968 368.61 41.128C367.01 41.704 365.858 42.312 365.154 42.952C364.45 43.592 364.098 44.216 364.098 44.824C364.098 45.624 364.322 46.248 364.77 46.696C365.25 47.144 365.81 47.368 366.45 47.368Z" fill="#010A5C"/>
<line x1="222" y1="55.7355" x2="278.723" y2="55.7355" stroke="#E3C24A" stroke-width="4"/>
<path d="M3.29188 49V20.2H13.8119C15.6785 20.2 17.2119 20.4133 18.4119 20.84C19.6385 21.2667 20.5985 21.8533 21.2919 22.6C22.0119 23.3467 22.5052 24.2133 22.7719 25.2C23.0652 26.16 23.2119 27.1733 23.2119 28.24C23.2119 29.84 22.8785 31.16 22.2119 32.2C21.5719 33.24 20.7319 34.0667 19.6919 34.68C18.6519 35.2667 17.4652 35.68 16.1319 35.92C14.8252 36.16 13.5052 36.28 12.1719 36.28H6.01188V49H3.29188ZM12.2519 33.96C13.5319 33.96 14.6785 33.88 15.6919 33.72C16.7052 33.56 17.5585 33.2667 18.2519 32.84C18.9719 32.3867 19.5185 31.7867 19.8919 31.04C20.2919 30.2667 20.4919 29.2667 20.4919 28.04C20.4919 26.2267 19.8919 24.8533 18.6919 23.92C17.5185 22.9867 15.6385 22.52 13.0519 22.52H6.01188V33.96H12.2519ZM35.745 49.56C34.4117 49.5333 33.1583 49.2933 31.985 48.84C30.8383 48.3867 29.825 47.7067 28.945 46.8C28.0917 45.8933 27.4117 44.76 26.905 43.4C26.3983 42.04 26.145 40.4533 26.145 38.64C26.145 37.12 26.345 35.7067 26.745 34.4C27.145 33.0667 27.745 31.9067 28.545 30.92C29.345 29.9333 30.345 29.16 31.545 28.6C32.745 28.0133 34.145 27.72 35.745 27.72C37.3717 27.72 38.785 28.0133 39.985 28.6C41.185 29.16 42.185 29.9333 42.985 30.92C43.785 31.88 44.3717 33.0267 44.745 34.36C45.145 35.6933 45.345 37.12 45.345 38.64C45.345 40.2933 45.1183 41.7867 44.665 43.12C44.2117 44.4533 43.5583 45.6 42.705 46.56C41.8783 47.52 40.865 48.2667 39.665 48.8C38.4917 49.3067 37.185 49.56 35.745 49.56ZM42.785 38.64C42.785 37.4133 42.6517 36.2667 42.385 35.2C42.1183 34.1333 41.705 33.2133 41.145 32.44C40.585 31.64 39.865 31.0133 38.985 30.56C38.105 30.1067 37.025 29.88 35.745 29.88C34.4917 29.88 33.4117 30.1333 32.505 30.64C31.625 31.12 30.905 31.7733 30.345 32.6C29.785 33.4 29.3717 34.3333 29.105 35.4C28.8383 36.44 28.705 37.52 28.705 38.64C28.705 39.92 28.8517 41.1067 29.145 42.2C29.465 43.2667 29.9183 44.1867 30.505 44.96C31.0917 45.7333 31.825 46.3333 32.705 46.76C33.585 47.1867 34.5983 47.4 35.745 47.4C36.9983 47.4 38.065 47.16 38.945 46.68C39.8517 46.1733 40.585 45.5067 41.145 44.68C41.705 43.8533 42.1183 42.92 42.385 41.88C42.6517 40.84 42.785 39.76 42.785 38.64ZM67.2516 45.8L72.6916 28.28H75.1316L68.4116 49H65.8516L61.3316 31.6H61.2516L56.6516 49H53.7716L47.4516 28.28H49.8516L55.2116 45.96L60.0116 28.28H62.6916L67.2516 45.8ZM93.5988 37.2C93.5988 36.1867 93.4521 35.24 93.1588 34.36C92.8921 33.4533 92.4788 32.68 91.9188 32.04C91.3854 31.3733 90.7054 30.8533 89.8788 30.48C89.0521 30.08 88.1054 29.88 87.0388 29.88C85.9721 29.88 85.0254 30.08 84.1988 30.48C83.3988 30.88 82.7054 31.4133 82.1188 32.08C81.5588 32.7467 81.1054 33.52 80.7588 34.4C80.4121 35.28 80.1854 36.2133 80.0788 37.2H93.5988ZM80.0788 39.2C80.0788 40.32 80.2254 41.3867 80.5188 42.4C80.8121 43.3867 81.2388 44.2533 81.7988 45C82.3854 45.72 83.1188 46.3067 83.9988 46.76C84.8788 47.1867 85.8921 47.4 87.0388 47.4C88.6121 47.4 89.9588 46.9867 91.0788 46.16C92.1988 45.3333 92.9454 44.16 93.3188 42.64H95.9988C95.7054 43.6267 95.3188 44.5467 94.8388 45.4C94.3588 46.2267 93.7588 46.96 93.0388 47.6C92.3188 48.2133 91.4654 48.6933 90.4788 49.04C89.4921 49.3867 88.3454 49.56 87.0388 49.56C85.3854 49.56 83.9588 49.28 82.7588 48.72C81.5588 48.16 80.5721 47.4 79.7988 46.44C79.0254 45.4533 78.4521 44.3067 78.0788 43C77.7054 41.6667 77.5188 40.24 77.5188 38.72C77.5188 37.2 77.7321 35.7733 78.1588 34.44C78.6121 33.1067 79.2388 31.9467 80.0388 30.96C80.8654 29.9467 81.8654 29.16 83.0388 28.6C84.2121 28.0133 85.5454 27.72 87.0388 27.72C89.8921 27.72 92.1321 28.7067 93.7588 30.68C95.3854 32.6267 96.1854 35.4667 96.1588 39.2H80.0788ZM103.345 49H100.945V28.28H103.345V32.16H103.425C104.092 30.5067 104.945 29.36 105.985 28.72C107.052 28.0533 108.452 27.72 110.185 27.72V30.32C108.825 30.2933 107.705 30.5067 106.825 30.96C105.945 31.4133 105.239 32.0267 104.705 32.8C104.199 33.5733 103.839 34.4933 103.625 35.56C103.439 36.6 103.345 37.6933 103.345 38.84V49ZM128.443 37.2C128.443 36.1867 128.296 35.24 128.003 34.36C127.736 33.4533 127.323 32.68 126.763 32.04C126.229 31.3733 125.549 30.8533 124.723 30.48C123.896 30.08 122.949 29.88 121.883 29.88C120.816 29.88 119.869 30.08 119.043 30.48C118.243 30.88 117.549 31.4133 116.963 32.08C116.403 32.7467 115.949 33.52 115.603 34.4C115.256 35.28 115.029 36.2133 114.923 37.2H128.443ZM114.923 39.2C114.923 40.32 115.069 41.3867 115.363 42.4C115.656 43.3867 116.083 44.2533 116.643 45C117.229 45.72 117.963 46.3067 118.843 46.76C119.723 47.1867 120.736 47.4 121.883 47.4C123.456 47.4 124.803 46.9867 125.923 46.16C127.043 45.3333 127.789 44.16 128.163 42.64H130.843C130.549 43.6267 130.163 44.5467 129.683 45.4C129.203 46.2267 128.603 46.96 127.883 47.6C127.163 48.2133 126.309 48.6933 125.323 49.04C124.336 49.3867 123.189 49.56 121.883 49.56C120.229 49.56 118.803 49.28 117.603 48.72C116.403 48.16 115.416 47.4 114.643 46.44C113.869 45.4533 113.296 44.3067 112.923 43C112.549 41.6667 112.363 40.24 112.363 38.72C112.363 37.2 112.576 35.7733 113.003 34.44C113.456 33.1067 114.083 31.9467 114.883 30.96C115.709 29.9467 116.709 29.16 117.883 28.6C119.056 28.0133 120.389 27.72 121.883 27.72C124.736 27.72 126.976 28.7067 128.603 30.68C130.229 32.6267 131.029 35.4667 131.003 39.2H114.923ZM151.669 38.56C151.669 37.3867 151.509 36.28 151.189 35.24C150.869 34.1733 150.402 33.2533 149.789 32.48C149.202 31.68 148.469 31.0533 147.589 30.6C146.736 30.12 145.762 29.88 144.669 29.88C143.416 29.88 142.336 30.1333 141.429 30.64C140.522 31.12 139.776 31.7867 139.189 32.64C138.602 33.4933 138.176 34.4933 137.909 35.64C137.642 36.76 137.536 37.9733 137.589 39.28C137.589 40.5867 137.762 41.7467 138.109 42.76C138.482 43.7467 138.989 44.5867 139.629 45.28C140.269 45.9733 141.016 46.5067 141.869 46.88C142.722 47.2267 143.656 47.4 144.669 47.4C145.789 47.4 146.789 47.1733 147.669 46.72C148.549 46.2667 149.282 45.6533 149.869 44.88C150.456 44.08 150.896 43.1467 151.189 42.08C151.509 40.9867 151.669 39.8133 151.669 38.56ZM151.669 20.2H154.069V49H151.669V45.36H151.589C151.242 46.0533 150.789 46.6667 150.229 47.2C149.696 47.7067 149.096 48.1333 148.429 48.48C147.789 48.8267 147.122 49.0933 146.429 49.28C145.736 49.4667 145.056 49.56 144.389 49.56C142.709 49.56 141.282 49.28 140.109 48.72C138.936 48.16 137.962 47.4 137.189 46.44C136.442 45.4533 135.896 44.2933 135.549 42.96C135.202 41.6267 135.029 40.2 135.029 38.68C135.029 37.24 135.216 35.8533 135.589 34.52C135.962 33.1867 136.522 32.0267 137.269 31.04C138.042 30.0267 139.002 29.2267 140.149 28.64C141.322 28.0267 142.696 27.72 144.269 27.72C145.736 27.72 147.136 28.0533 148.469 28.72C149.829 29.36 150.896 30.32 151.669 31.6V20.2ZM173.935 38.56C173.935 39.8133 174.082 40.9867 174.375 42.08C174.695 43.1467 175.148 44.08 175.735 44.88C176.322 45.6533 177.055 46.2667 177.935 46.72C178.815 47.1733 179.815 47.4 180.935 47.4C181.948 47.4 182.882 47.2267 183.735 46.88C184.588 46.5067 185.335 45.9733 185.975 45.28C186.615 44.5867 187.108 43.7467 187.455 42.76C187.828 41.7467 188.015 40.5867 188.015 39.28C188.068 37.9733 187.962 36.76 187.695 35.64C187.428 34.4933 187.002 33.4933 186.415 32.64C185.828 31.7867 185.068 31.12 184.135 30.64C183.228 30.1333 182.162 29.88 180.935 29.88C179.842 29.88 178.855 30.12 177.975 30.6C177.122 31.0533 176.388 31.68 175.775 32.48C175.188 33.2533 174.735 34.1733 174.415 35.24C174.095 36.28 173.935 37.3867 173.935 38.56ZM173.935 49H171.535V20.2H173.935V31.6C174.708 30.32 175.762 29.36 177.095 28.72C178.455 28.0533 179.868 27.72 181.335 27.72C182.908 27.72 184.268 28.0267 185.415 28.64C186.588 29.2267 187.548 30.0267 188.295 31.04C189.068 32.0267 189.642 33.1867 190.015 34.52C190.388 35.8533 190.575 37.24 190.575 38.68C190.575 40.2 190.402 41.6267 190.055 42.96C189.708 44.2933 189.148 45.4533 188.375 46.44C187.628 47.4 186.668 48.16 185.495 48.72C184.322 49.28 182.895 49.56 181.215 49.56C180.548 49.56 179.868 49.4667 179.175 49.28C178.482 49.0933 177.802 48.8267 177.135 48.48C176.495 48.1333 175.895 47.7067 175.335 47.2C174.802 46.6667 174.362 46.0533 174.015 45.36H173.935V49ZM195.548 54.64C195.868 54.6933 196.188 54.7467 196.508 54.8C196.855 54.8533 197.201 54.88 197.548 54.88C198.215 54.88 198.761 54.6667 199.188 54.24C199.615 53.8133 199.961 53.2933 200.228 52.68C200.521 52.0933 200.761 51.4667 200.948 50.8C201.135 50.16 201.348 49.6133 201.588 49.16L193.548 28.28H196.228L202.868 46.08L209.508 28.28H212.108L204.388 48.72C203.908 50.0267 203.441 51.2 202.988 52.24C202.561 53.28 202.095 54.16 201.588 54.88C201.108 55.6267 200.561 56.1867 199.948 56.56C199.361 56.96 198.655 57.16 197.828 57.16C197.401 57.16 196.988 57.1333 196.588 57.08C196.215 57.0267 195.868 56.96 195.548 56.88V54.64Z" fill="#010A5C"/>
</svg>
